<mxfile host="Electron" modified="2024-03-14T11:45:28.551Z" agent="Mozilla/5.0 (Windows NT 10.0; Win64; x64) AppleWebKit/537.36 (KHTML, like Gecko) draw.io/23.1.5 Chrome/120.0.6099.109 Electron/28.1.0 Safari/537.36" etag="luH2bx7hcFIPZhz2_I-R" version="23.1.5" type="device" pages="4">
  <diagram id="RXbQOoOjygj_gYXSNNEO" name="Before">
    <mxGraphModel dx="2460" dy="1640" grid="1" gridSize="10" guides="1" tooltips="1" connect="1" arrows="1" fold="1" page="0" pageScale="1" pageWidth="1169" pageHeight="827" math="0" shadow="0">
      <root>
        <mxCell id="0" />
        <mxCell id="1" parent="0" />
        <mxCell id="e1fUHVEG6UCiYR12161q-1" value="&lt;b&gt;RawResourceAttributeDefinition [Impl]&lt;/b&gt;" style="html=1;whiteSpace=wrap;" parent="1" vertex="1">
          <mxGeometry x="-80" y="80" width="240" height="40" as="geometry" />
        </mxCell>
        <mxCell id="QFIIFqDJynSeNJLPeMdj-1" value="&lt;b&gt;PrismPropertyDefinitionImpl&lt;/b&gt;" style="html=1;whiteSpace=wrap;" parent="1" vertex="1">
          <mxGeometry x="-60" y="-40" width="200" height="40" as="geometry" />
        </mxCell>
        <mxCell id="QFIIFqDJynSeNJLPeMdj-2" value="" style="endArrow=block;endSize=16;endFill=0;html=1;rounded=0;fontSize=12;exitX=0.5;exitY=0;exitDx=0;exitDy=0;entryX=0.5;entryY=1;entryDx=0;entryDy=0;" parent="1" source="e1fUHVEG6UCiYR12161q-1" target="QFIIFqDJynSeNJLPeMdj-1" edge="1">
          <mxGeometry width="160" relative="1" as="geometry">
            <mxPoint x="130" y="210" as="sourcePoint" />
            <mxPoint x="290" y="210" as="targetPoint" />
          </mxGeometry>
        </mxCell>
        <mxCell id="QFIIFqDJynSeNJLPeMdj-3" value="&lt;i&gt;ResourceAttributeDefinition&lt;/i&gt;" style="html=1;whiteSpace=wrap;" parent="1" vertex="1">
          <mxGeometry x="160" y="-40" width="200" height="40" as="geometry" />
        </mxCell>
        <mxCell id="QFIIFqDJynSeNJLPeMdj-5" value="" style="endArrow=block;dashed=1;endFill=0;endSize=12;html=1;rounded=0;fontSize=12;exitX=0.75;exitY=0;exitDx=0;exitDy=0;entryX=0.5;entryY=1;entryDx=0;entryDy=0;edgeStyle=orthogonalEdgeStyle;" parent="1" source="e1fUHVEG6UCiYR12161q-1" target="QFIIFqDJynSeNJLPeMdj-3" edge="1">
          <mxGeometry width="160" relative="1" as="geometry">
            <mxPoint x="130" y="210" as="sourcePoint" />
            <mxPoint x="290" y="210" as="targetPoint" />
          </mxGeometry>
        </mxCell>
        <mxCell id="QFIIFqDJynSeNJLPeMdj-6" value="&lt;b&gt;ResourceAttributeDefinitionImpl&lt;/b&gt;" style="html=1;whiteSpace=wrap;" parent="1" vertex="1">
          <mxGeometry x="240" y="80" width="200" height="40" as="geometry" />
        </mxCell>
        <mxCell id="QFIIFqDJynSeNJLPeMdj-7" value="" style="endArrow=block;dashed=1;endFill=0;endSize=12;html=1;rounded=0;fontSize=12;exitX=0.5;exitY=0;exitDx=0;exitDy=0;entryX=0.5;entryY=1;entryDx=0;entryDy=0;edgeStyle=orthogonalEdgeStyle;" parent="1" source="QFIIFqDJynSeNJLPeMdj-6" target="QFIIFqDJynSeNJLPeMdj-3" edge="1">
          <mxGeometry width="160" relative="1" as="geometry">
            <mxPoint x="110" y="90" as="sourcePoint" />
            <mxPoint x="270" y="10" as="targetPoint" />
          </mxGeometry>
        </mxCell>
        <mxCell id="QFIIFqDJynSeNJLPeMdj-8" value="&lt;i&gt;PrismPropertyDefinition&lt;/i&gt;" style="html=1;whiteSpace=wrap;" parent="1" vertex="1">
          <mxGeometry x="60" y="-160" width="200" height="40" as="geometry" />
        </mxCell>
        <mxCell id="QFIIFqDJynSeNJLPeMdj-9" value="" style="endArrow=block;endSize=16;endFill=0;html=1;rounded=0;fontSize=12;exitX=0.5;exitY=0;exitDx=0;exitDy=0;entryX=0.5;entryY=1;entryDx=0;entryDy=0;edgeStyle=orthogonalEdgeStyle;" parent="1" source="QFIIFqDJynSeNJLPeMdj-3" target="QFIIFqDJynSeNJLPeMdj-8" edge="1">
          <mxGeometry width="160" relative="1" as="geometry">
            <mxPoint x="50" y="90" as="sourcePoint" />
            <mxPoint x="50" y="10" as="targetPoint" />
          </mxGeometry>
        </mxCell>
        <mxCell id="QFIIFqDJynSeNJLPeMdj-10" value="" style="endArrow=block;endSize=16;endFill=0;html=1;rounded=0;fontSize=12;exitX=0.5;exitY=0;exitDx=0;exitDy=0;edgeStyle=orthogonalEdgeStyle;entryX=0.5;entryY=1;entryDx=0;entryDy=0;" parent="1" source="QFIIFqDJynSeNJLPeMdj-1" target="QFIIFqDJynSeNJLPeMdj-8" edge="1">
          <mxGeometry width="160" relative="1" as="geometry">
            <mxPoint x="60" y="100" as="sourcePoint" />
            <mxPoint x="210" y="-90" as="targetPoint" />
          </mxGeometry>
        </mxCell>
        <mxCell id="-lDDYHEJ5gmCRY84a2No-1" value="1" style="endArrow=diamondThin;endFill=0;endSize=24;html=1;rounded=0;fontSize=12;entryX=0;entryY=0.5;entryDx=0;entryDy=0;exitX=1;exitY=0.5;exitDx=0;exitDy=0;" parent="1" source="e1fUHVEG6UCiYR12161q-1" target="QFIIFqDJynSeNJLPeMdj-6" edge="1">
          <mxGeometry x="-0.75" y="10" width="160" relative="1" as="geometry">
            <mxPoint x="130" y="210" as="sourcePoint" />
            <mxPoint x="290" y="210" as="targetPoint" />
            <mxPoint as="offset" />
          </mxGeometry>
        </mxCell>
        <mxCell id="-lDDYHEJ5gmCRY84a2No-2" value="ResourceAttributeDefinitionType" style="html=1;whiteSpace=wrap;" parent="1" vertex="1">
          <mxGeometry x="240" y="160" width="200" height="40" as="geometry" />
        </mxCell>
        <mxCell id="-lDDYHEJ5gmCRY84a2No-3" value="1" style="endArrow=diamondThin;endFill=0;endSize=24;html=1;rounded=0;fontSize=12;entryX=0.5;entryY=1;entryDx=0;entryDy=0;exitX=0.5;exitY=0;exitDx=0;exitDy=0;" parent="1" source="-lDDYHEJ5gmCRY84a2No-2" target="QFIIFqDJynSeNJLPeMdj-6" edge="1">
          <mxGeometry x="-0.5" y="-10" width="160" relative="1" as="geometry">
            <mxPoint x="170" y="110" as="sourcePoint" />
            <mxPoint x="250" y="110" as="targetPoint" />
            <mxPoint as="offset" />
          </mxGeometry>
        </mxCell>
      </root>
    </mxGraphModel>
  </diagram>
  <diagram name="Improved (attrs)" id="UtYZrvnA80B_y7AIm07I">
    <mxGraphModel dx="2860" dy="1640" grid="1" gridSize="10" guides="1" tooltips="1" connect="1" arrows="1" fold="1" page="0" pageScale="1" pageWidth="1169" pageHeight="827" math="0" shadow="0">
      <root>
        <mxCell id="XXY0vYdp37rLCLmWop2S-0" />
        <mxCell id="XXY0vYdp37rLCLmWop2S-1" parent="XXY0vYdp37rLCLmWop2S-0" />
        <mxCell id="XXY0vYdp37rLCLmWop2S-2" value="&lt;b&gt;NativeShadowAttributeDefinitionImpl&lt;/b&gt;" style="html=1;whiteSpace=wrap;" parent="XXY0vYdp37rLCLmWop2S-1" vertex="1">
          <mxGeometry x="-160" y="30" width="240" height="40" as="geometry" />
        </mxCell>
        <mxCell id="XXY0vYdp37rLCLmWop2S-5" value="&lt;i&gt;ResourceAttributeDefinition&lt;/i&gt;" style="html=1;whiteSpace=wrap;" parent="XXY0vYdp37rLCLmWop2S-1" vertex="1">
          <mxGeometry x="160" y="-60" width="200" height="40" as="geometry" />
        </mxCell>
        <mxCell id="XXY0vYdp37rLCLmWop2S-7" value="&lt;b&gt;ResourceAttributeDefinitionImpl&lt;/b&gt;" style="html=1;whiteSpace=wrap;" parent="XXY0vYdp37rLCLmWop2S-1" vertex="1">
          <mxGeometry x="160" y="30" width="200" height="40" as="geometry" />
        </mxCell>
        <mxCell id="XXY0vYdp37rLCLmWop2S-8" value="" style="endArrow=block;dashed=1;endFill=0;endSize=12;html=1;rounded=0;fontSize=12;exitX=0.5;exitY=0;exitDx=0;exitDy=0;entryX=0.5;entryY=1;entryDx=0;entryDy=0;edgeStyle=orthogonalEdgeStyle;" parent="XXY0vYdp37rLCLmWop2S-1" source="XXY0vYdp37rLCLmWop2S-7" target="XXY0vYdp37rLCLmWop2S-5" edge="1">
          <mxGeometry width="160" relative="1" as="geometry">
            <mxPoint x="110" y="90" as="sourcePoint" />
            <mxPoint x="270" y="10" as="targetPoint" />
          </mxGeometry>
        </mxCell>
        <mxCell id="XXY0vYdp37rLCLmWop2S-9" value="&lt;i&gt;PrismPropertyDefinition&lt;/i&gt;" style="html=1;whiteSpace=wrap;" parent="XXY0vYdp37rLCLmWop2S-1" vertex="1">
          <mxGeometry x="160" y="-160" width="200" height="40" as="geometry" />
        </mxCell>
        <mxCell id="XXY0vYdp37rLCLmWop2S-10" value="" style="endArrow=block;endSize=16;endFill=0;html=1;rounded=0;fontSize=12;exitX=0.5;exitY=0;exitDx=0;exitDy=0;entryX=0.5;entryY=1;entryDx=0;entryDy=0;edgeStyle=orthogonalEdgeStyle;" parent="XXY0vYdp37rLCLmWop2S-1" source="XXY0vYdp37rLCLmWop2S-5" target="XXY0vYdp37rLCLmWop2S-9" edge="1">
          <mxGeometry width="160" relative="1" as="geometry">
            <mxPoint x="50" y="90" as="sourcePoint" />
            <mxPoint x="50" y="10" as="targetPoint" />
          </mxGeometry>
        </mxCell>
        <mxCell id="XXY0vYdp37rLCLmWop2S-12" value="1" style="endArrow=diamondThin;endFill=0;endSize=24;html=1;rounded=0;fontSize=12;entryX=0;entryY=0.5;entryDx=0;entryDy=0;exitX=1;exitY=0.5;exitDx=0;exitDy=0;" parent="XXY0vYdp37rLCLmWop2S-1" source="XXY0vYdp37rLCLmWop2S-2" target="XXY0vYdp37rLCLmWop2S-7" edge="1">
          <mxGeometry x="-0.75" y="10" width="160" relative="1" as="geometry">
            <mxPoint x="50" y="160" as="sourcePoint" />
            <mxPoint x="210" y="160" as="targetPoint" />
            <mxPoint as="offset" />
          </mxGeometry>
        </mxCell>
        <mxCell id="XXY0vYdp37rLCLmWop2S-13" value="ResourceAttributeDefinitionType" style="html=1;whiteSpace=wrap;" parent="XXY0vYdp37rLCLmWop2S-1" vertex="1">
          <mxGeometry x="160" y="120" width="200" height="40" as="geometry" />
        </mxCell>
        <mxCell id="XXY0vYdp37rLCLmWop2S-14" value="1" style="endArrow=diamondThin;endFill=0;endSize=24;html=1;rounded=0;fontSize=12;entryX=0.5;entryY=1;entryDx=0;entryDy=0;exitX=0.5;exitY=0;exitDx=0;exitDy=0;" parent="XXY0vYdp37rLCLmWop2S-1" source="XXY0vYdp37rLCLmWop2S-13" target="XXY0vYdp37rLCLmWop2S-7" edge="1">
          <mxGeometry x="-0.5" y="-10" width="160" relative="1" as="geometry">
            <mxPoint x="90" y="60" as="sourcePoint" />
            <mxPoint x="170" y="60" as="targetPoint" />
            <mxPoint as="offset" />
          </mxGeometry>
        </mxCell>
        <mxCell id="qsI-9T9JjzLEetsTYQ38-0" value="&lt;i&gt;PrismItemBasicDefinition&lt;br&gt;PrismItemAccessDefinition&lt;br&gt;PrismPresentationDefinition&lt;br&gt;PrismItemValuesDefinition&lt;br&gt;PrismItemMatchingDefinition&lt;br&gt;PrismItemMiscDefinition&lt;br&gt;ShadowItemUcfDefinition&lt;br&gt;&lt;/i&gt;" style="html=1;whiteSpace=wrap;" parent="XXY0vYdp37rLCLmWop2S-1" vertex="1">
          <mxGeometry x="-160" y="-230" width="240" height="120" as="geometry" />
        </mxCell>
        <mxCell id="qsI-9T9JjzLEetsTYQ38-2" value="&lt;b&gt;*.Data &lt;/b&gt;(storage)" style="html=1;whiteSpace=wrap;" parent="XXY0vYdp37rLCLmWop2S-1" vertex="1">
          <mxGeometry x="-410" y="30" width="180" height="40" as="geometry" />
        </mxCell>
        <mxCell id="qsI-9T9JjzLEetsTYQ38-3" value="&lt;b&gt;*.Delegable&lt;/b&gt;&lt;br&gt;&lt;b&gt;*.Mutable.Delegable&lt;br&gt;&lt;/b&gt;(functionality)" style="html=1;whiteSpace=wrap;" parent="XXY0vYdp37rLCLmWop2S-1" vertex="1">
          <mxGeometry x="-410" y="-100" width="180" height="60" as="geometry" />
        </mxCell>
        <mxCell id="qsI-9T9JjzLEetsTYQ38-4" value="" style="endArrow=block;dashed=1;endFill=0;endSize=12;html=1;rounded=0;fontSize=12;entryX=0;entryY=0.5;entryDx=0;entryDy=0;edgeStyle=orthogonalEdgeStyle;exitX=1;exitY=0.5;exitDx=0;exitDy=0;" parent="XXY0vYdp37rLCLmWop2S-1" source="qsI-9T9JjzLEetsTYQ38-3" target="qsI-9T9JjzLEetsTYQ38-0" edge="1">
          <mxGeometry width="160" relative="1" as="geometry">
            <mxPoint x="-30" y="40" as="sourcePoint" />
            <mxPoint x="-30" y="-30" as="targetPoint" />
          </mxGeometry>
        </mxCell>
        <mxCell id="qsI-9T9JjzLEetsTYQ38-5" value="" style="endArrow=block;endSize=16;endFill=0;html=1;rounded=0;fontSize=12;exitX=0.5;exitY=0;exitDx=0;exitDy=0;entryX=0.5;entryY=1;entryDx=0;entryDy=0;edgeStyle=orthogonalEdgeStyle;" parent="XXY0vYdp37rLCLmWop2S-1" source="qsI-9T9JjzLEetsTYQ38-2" target="qsI-9T9JjzLEetsTYQ38-3" edge="1">
          <mxGeometry width="160" relative="1" as="geometry">
            <mxPoint x="270" y="-50" as="sourcePoint" />
            <mxPoint x="270" y="-110" as="targetPoint" />
          </mxGeometry>
        </mxCell>
        <mxCell id="qsI-9T9JjzLEetsTYQ38-6" value="1" style="endArrow=diamondThin;endFill=0;endSize=24;html=1;rounded=0;fontSize=12;entryX=0;entryY=0.5;entryDx=0;entryDy=0;exitX=1;exitY=0.5;exitDx=0;exitDy=0;" parent="XXY0vYdp37rLCLmWop2S-1" source="qsI-9T9JjzLEetsTYQ38-2" target="XXY0vYdp37rLCLmWop2S-2" edge="1">
          <mxGeometry x="-0.75" y="10" width="160" relative="1" as="geometry">
            <mxPoint x="-250" y="130" as="sourcePoint" />
            <mxPoint x="-170" y="130" as="targetPoint" />
            <mxPoint as="offset" />
          </mxGeometry>
        </mxCell>
        <mxCell id="qsI-9T9JjzLEetsTYQ38-8" value="" style="endArrow=block;dashed=1;endFill=0;endSize=12;html=1;rounded=0;fontSize=12;entryX=0.5;entryY=1;entryDx=0;entryDy=0;edgeStyle=orthogonalEdgeStyle;exitX=0.5;exitY=0;exitDx=0;exitDy=0;" parent="XXY0vYdp37rLCLmWop2S-1" source="XXY0vYdp37rLCLmWop2S-2" target="qsI-9T9JjzLEetsTYQ38-7" edge="1">
          <mxGeometry width="160" relative="1" as="geometry">
            <mxPoint x="-40" y="30" as="sourcePoint" />
            <mxPoint x="-40" y="-110" as="targetPoint" />
          </mxGeometry>
        </mxCell>
        <mxCell id="qsI-9T9JjzLEetsTYQ38-7" value="&lt;i&gt;NativeShadowAttributeDefinition&lt;br&gt;&lt;/i&gt;" style="html=1;whiteSpace=wrap;" parent="XXY0vYdp37rLCLmWop2S-1" vertex="1">
          <mxGeometry x="-160" y="-60" width="240" height="40" as="geometry" />
        </mxCell>
        <mxCell id="qsI-9T9JjzLEetsTYQ38-9" style="edgeStyle=none;curved=1;rounded=0;orthogonalLoop=1;jettySize=auto;html=1;exitX=0.5;exitY=0;exitDx=0;exitDy=0;fontSize=12;startSize=8;endSize=8;" parent="XXY0vYdp37rLCLmWop2S-1" source="qsI-9T9JjzLEetsTYQ38-7" target="qsI-9T9JjzLEetsTYQ38-7" edge="1">
          <mxGeometry relative="1" as="geometry" />
        </mxCell>
        <mxCell id="qsI-9T9JjzLEetsTYQ38-10" value="" style="endArrow=block;endSize=16;endFill=0;html=1;rounded=0;fontSize=12;entryX=0.5;entryY=1;entryDx=0;entryDy=0;edgeStyle=orthogonalEdgeStyle;exitX=0.5;exitY=0;exitDx=0;exitDy=0;" parent="XXY0vYdp37rLCLmWop2S-1" source="qsI-9T9JjzLEetsTYQ38-7" target="qsI-9T9JjzLEetsTYQ38-0" edge="1">
          <mxGeometry width="160" relative="1" as="geometry">
            <mxPoint x="-40" y="-50" as="sourcePoint" />
            <mxPoint x="270" y="-110" as="targetPoint" />
          </mxGeometry>
        </mxCell>
      </root>
    </mxGraphModel>
  </diagram>
  <diagram name="Improved (all)" id="c4acf3e9-155e-7222-9cf6-157b1a14988f">
    <mxGraphModel dx="2060" dy="1240" grid="1" gridSize="10" guides="1" tooltips="1" connect="1" arrows="1" fold="1" page="1" pageScale="1" pageWidth="850" pageHeight="1100" background="none" math="0" shadow="0">
      <root>
        <mxCell id="0" />
        <mxCell id="1" parent="0" />
        <mxCell id="OwFgX3Wgjjnu0RvrjG4I-1" value="&lt;i&gt;PrismPropertyDefinition&amp;lt;T&amp;gt;&lt;/i&gt;" style="html=1;whiteSpace=wrap;" parent="1" vertex="1">
          <mxGeometry x="400" y="160" width="240" height="40" as="geometry" />
        </mxCell>
        <mxCell id="OwFgX3Wgjjnu0RvrjG4I-2" value="&lt;i&gt;ResourceAttributeDefinition&amp;lt;T&amp;gt;&lt;/i&gt;" style="html=1;whiteSpace=wrap;" parent="1" vertex="1">
          <mxGeometry x="400" y="320" width="240" height="40" as="geometry" />
        </mxCell>
        <mxCell id="OwFgX3Wgjjnu0RvrjG4I-3" value="&lt;i&gt;ShadowItemDefinition&amp;lt;...&amp;gt;&lt;/i&gt;" style="html=1;whiteSpace=wrap;" parent="1" vertex="1">
          <mxGeometry x="720" y="240" width="200" height="40" as="geometry" />
        </mxCell>
        <mxCell id="OwFgX3Wgjjnu0RvrjG4I-4" value="&lt;i&gt;ItemDefinition&amp;lt;V, D&amp;gt;&lt;/i&gt;" style="html=1;whiteSpace=wrap;" parent="1" vertex="1">
          <mxGeometry x="720" y="80" width="200" height="40" as="geometry" />
        </mxCell>
        <mxCell id="OwFgX3Wgjjnu0RvrjG4I-5" value="&lt;i&gt;PrismContainerDefinition&amp;lt;SAVT&amp;gt;&lt;/i&gt;" style="html=1;whiteSpace=wrap;" parent="1" vertex="1">
          <mxGeometry x="1000" y="160" width="240" height="40" as="geometry" />
        </mxCell>
        <mxCell id="OwFgX3Wgjjnu0RvrjG4I-6" value="&lt;i&gt;ShadowAssociationDefinition&lt;/i&gt;" style="html=1;whiteSpace=wrap;" parent="1" vertex="1">
          <mxGeometry x="1000" y="320" width="240" height="40" as="geometry" />
        </mxCell>
        <mxCell id="OwFgX3Wgjjnu0RvrjG4I-7" value="&lt;span style=&quot;font-style: normal;&quot;&gt;&lt;b&gt;ShadowItemDefinitionImpl&amp;lt;...&amp;gt;&lt;/b&gt;&lt;/span&gt;" style="html=1;whiteSpace=wrap;fontStyle=2;points=[[0,0,0,0,0],[0,0.25,0,0,0],[0,0.5,0,0,0],[0,0.75,0,0,0],[0,1,0,0,0],[0.22,1,0,0,0],[0.25,0,0,0,0],[0.41,1,0,0,0],[0.5,0,0,0,0],[0.61,1,0,0,0],[0.75,0,0,0,0],[0.81,1,0,0,0],[1,0,0,0,0],[1,0.25,0,0,0],[1,0.5,0,0,0],[1,0.75,0,0,0],[1,1,0,0,0]];" parent="1" vertex="1">
          <mxGeometry x="720" y="440" width="200" height="40" as="geometry" />
        </mxCell>
        <mxCell id="OwFgX3Wgjjnu0RvrjG4I-8" value="&lt;span style=&quot;font-style: normal;&quot;&gt;&lt;b&gt;ResourceAttributeDefinitionImpl&amp;lt;T&amp;gt;&lt;/b&gt;&lt;/span&gt;" style="html=1;whiteSpace=wrap;fontStyle=2" parent="1" vertex="1">
          <mxGeometry x="400" y="520" width="240" height="40" as="geometry" />
        </mxCell>
        <mxCell id="OwFgX3Wgjjnu0RvrjG4I-9" value="&lt;span style=&quot;font-style: normal;&quot;&gt;&lt;b&gt;ShadowAssociationDefinitionImpl&lt;/b&gt;&lt;/span&gt;" style="html=1;whiteSpace=wrap;fontStyle=2" parent="1" vertex="1">
          <mxGeometry x="1000" y="520" width="240" height="40" as="geometry" />
        </mxCell>
        <mxCell id="OwFgX3Wgjjnu0RvrjG4I-10" value="&lt;span style=&quot;font-style: normal;&quot;&gt;&lt;b&gt;NativeShadowItemDefinitionImpl&lt;/b&gt;&lt;/span&gt;" style="html=1;whiteSpace=wrap;fontStyle=2" parent="1" vertex="1">
          <mxGeometry x="720" y="600" width="200" height="40" as="geometry" />
        </mxCell>
        <mxCell id="OwFgX3Wgjjnu0RvrjG4I-11" value="&lt;span style=&quot;font-style: normal;&quot;&gt;&lt;b&gt;NativeShadowAttributeDefinitionImpl&lt;/b&gt;&lt;/span&gt;" style="html=1;whiteSpace=wrap;fontStyle=2" parent="1" vertex="1">
          <mxGeometry x="400" y="720" width="240" height="40" as="geometry" />
        </mxCell>
        <mxCell id="OwFgX3Wgjjnu0RvrjG4I-12" value="&lt;span style=&quot;font-style: normal;&quot;&gt;&lt;b&gt;NativeShadowAssociationDefinitionImpl&lt;/b&gt;&lt;/span&gt;" style="html=1;whiteSpace=wrap;fontStyle=2" parent="1" vertex="1">
          <mxGeometry x="1000" y="720" width="240" height="40" as="geometry" />
        </mxCell>
        <mxCell id="OwFgX3Wgjjnu0RvrjG4I-13" value="" style="endArrow=block;endSize=16;endFill=0;html=1;rounded=0;fontSize=12;edgeStyle=orthogonalEdgeStyle;entryX=0.5;entryY=1;entryDx=0;entryDy=0;exitX=0.5;exitY=0;exitDx=0;exitDy=0;" parent="1" source="OwFgX3Wgjjnu0RvrjG4I-11" target="OwFgX3Wgjjnu0RvrjG4I-10" edge="1">
          <mxGeometry width="160" relative="1" as="geometry">
            <mxPoint x="760" y="670" as="sourcePoint" />
            <mxPoint x="920" y="670" as="targetPoint" />
          </mxGeometry>
        </mxCell>
        <mxCell id="OwFgX3Wgjjnu0RvrjG4I-14" value="" style="endArrow=block;endSize=16;endFill=0;html=1;rounded=0;fontSize=12;edgeStyle=orthogonalEdgeStyle;entryX=0.5;entryY=1;entryDx=0;entryDy=0;exitX=0.5;exitY=0;exitDx=0;exitDy=0;" parent="1" source="OwFgX3Wgjjnu0RvrjG4I-12" target="OwFgX3Wgjjnu0RvrjG4I-10" edge="1">
          <mxGeometry width="160" relative="1" as="geometry">
            <mxPoint x="530" y="730" as="sourcePoint" />
            <mxPoint x="830" y="650" as="targetPoint" />
          </mxGeometry>
        </mxCell>
        <mxCell id="OwFgX3Wgjjnu0RvrjG4I-15" value="1" style="endArrow=diamondThin;endFill=0;endSize=24;html=1;rounded=0;fontSize=12;entryX=0.41;entryY=1;entryDx=0;entryDy=0;exitX=0.5;exitY=0;exitDx=0;exitDy=0;entryPerimeter=0;" parent="1" source="OwFgX3Wgjjnu0RvrjG4I-10" target="OwFgX3Wgjjnu0RvrjG4I-7" edge="1">
          <mxGeometry x="-0.75" y="10" width="160" relative="1" as="geometry">
            <mxPoint x="760" y="630" as="sourcePoint" />
            <mxPoint x="920" y="630" as="targetPoint" />
            <mxPoint as="offset" />
            <Array as="points">
              <mxPoint x="820" y="540" />
              <mxPoint x="802" y="540" />
            </Array>
          </mxGeometry>
        </mxCell>
        <mxCell id="OwFgX3Wgjjnu0RvrjG4I-16" value="" style="endArrow=block;endSize=16;endFill=0;html=1;rounded=0;fontSize=12;edgeStyle=orthogonalEdgeStyle;entryX=0.22;entryY=1;entryDx=0;entryDy=0;exitX=1;exitY=0.5;exitDx=0;exitDy=0;entryPerimeter=0;" parent="1" source="OwFgX3Wgjjnu0RvrjG4I-8" target="OwFgX3Wgjjnu0RvrjG4I-7" edge="1">
          <mxGeometry width="160" relative="1" as="geometry">
            <mxPoint x="530" y="690" as="sourcePoint" />
            <mxPoint x="830" y="610" as="targetPoint" />
          </mxGeometry>
        </mxCell>
        <mxCell id="OwFgX3Wgjjnu0RvrjG4I-17" value="" style="endArrow=block;endSize=16;endFill=0;html=1;rounded=0;fontSize=12;edgeStyle=orthogonalEdgeStyle;entryX=0.81;entryY=1;entryDx=0;entryDy=0;exitX=0;exitY=0.5;exitDx=0;exitDy=0;entryPerimeter=0;" parent="1" source="OwFgX3Wgjjnu0RvrjG4I-9" target="OwFgX3Wgjjnu0RvrjG4I-7" edge="1">
          <mxGeometry width="160" relative="1" as="geometry">
            <mxPoint x="650" y="550" as="sourcePoint" />
            <mxPoint x="780" y="490" as="targetPoint" />
          </mxGeometry>
        </mxCell>
        <mxCell id="OwFgX3Wgjjnu0RvrjG4I-18" value="" style="endArrow=block;dashed=1;endFill=0;endSize=12;html=1;rounded=0;fontSize=12;entryX=0.5;entryY=1;entryDx=0;entryDy=0;exitX=0.5;exitY=0;exitDx=0;exitDy=0;" parent="1" source="OwFgX3Wgjjnu0RvrjG4I-8" target="OwFgX3Wgjjnu0RvrjG4I-2" edge="1">
          <mxGeometry width="160" relative="1" as="geometry">
            <mxPoint x="760" y="630" as="sourcePoint" />
            <mxPoint x="920" y="630" as="targetPoint" />
          </mxGeometry>
        </mxCell>
        <mxCell id="OwFgX3Wgjjnu0RvrjG4I-19" value="" style="endArrow=block;dashed=1;endFill=0;endSize=12;html=1;rounded=0;fontSize=12;entryX=0.5;entryY=1;entryDx=0;entryDy=0;exitX=0.5;exitY=0;exitDx=0;exitDy=0;" parent="1" source="OwFgX3Wgjjnu0RvrjG4I-2" target="OwFgX3Wgjjnu0RvrjG4I-1" edge="1">
          <mxGeometry width="160" relative="1" as="geometry">
            <mxPoint x="530" y="530" as="sourcePoint" />
            <mxPoint x="530" y="370" as="targetPoint" />
          </mxGeometry>
        </mxCell>
        <mxCell id="OwFgX3Wgjjnu0RvrjG4I-20" value="" style="endArrow=block;dashed=1;endFill=0;endSize=12;html=1;rounded=0;fontSize=12;entryX=0.5;entryY=1;entryDx=0;entryDy=0;exitX=0.5;exitY=0;exitDx=0;exitDy=0;" parent="1" source="OwFgX3Wgjjnu0RvrjG4I-9" target="OwFgX3Wgjjnu0RvrjG4I-6" edge="1">
          <mxGeometry width="160" relative="1" as="geometry">
            <mxPoint x="1150" y="520" as="sourcePoint" />
            <mxPoint x="1150" y="360" as="targetPoint" />
          </mxGeometry>
        </mxCell>
        <mxCell id="OwFgX3Wgjjnu0RvrjG4I-21" value="" style="endArrow=block;dashed=1;endFill=0;endSize=12;html=1;rounded=0;fontSize=12;entryX=0.5;entryY=1;entryDx=0;entryDy=0;exitX=0.5;exitY=0;exitDx=0;exitDy=0;" parent="1" source="OwFgX3Wgjjnu0RvrjG4I-7" target="OwFgX3Wgjjnu0RvrjG4I-3" edge="1">
          <mxGeometry width="160" relative="1" as="geometry">
            <mxPoint x="540" y="540" as="sourcePoint" />
            <mxPoint x="540" y="380" as="targetPoint" />
          </mxGeometry>
        </mxCell>
        <mxCell id="OwFgX3Wgjjnu0RvrjG4I-23" value="" style="endArrow=block;endSize=16;endFill=0;html=1;rounded=0;fontSize=12;edgeStyle=orthogonalEdgeStyle;entryX=0.25;entryY=1;entryDx=0;entryDy=0;exitX=1;exitY=0.5;exitDx=0;exitDy=0;" parent="1" source="OwFgX3Wgjjnu0RvrjG4I-2" target="OwFgX3Wgjjnu0RvrjG4I-3" edge="1">
          <mxGeometry width="160" relative="1" as="geometry">
            <mxPoint x="660" y="560" as="sourcePoint" />
            <mxPoint x="790" y="500" as="targetPoint" />
          </mxGeometry>
        </mxCell>
        <mxCell id="OwFgX3Wgjjnu0RvrjG4I-24" value="" style="endArrow=block;endSize=16;endFill=0;html=1;rounded=0;fontSize=12;edgeStyle=orthogonalEdgeStyle;entryX=0.75;entryY=1;entryDx=0;entryDy=0;exitX=0;exitY=0.5;exitDx=0;exitDy=0;" parent="1" source="OwFgX3Wgjjnu0RvrjG4I-6" target="OwFgX3Wgjjnu0RvrjG4I-3" edge="1">
          <mxGeometry width="160" relative="1" as="geometry">
            <mxPoint x="650" y="350" as="sourcePoint" />
            <mxPoint x="780" y="290" as="targetPoint" />
          </mxGeometry>
        </mxCell>
        <mxCell id="OwFgX3Wgjjnu0RvrjG4I-25" value="" style="endArrow=block;dashed=1;endFill=0;endSize=12;html=1;rounded=0;fontSize=12;entryX=0.5;entryY=1;entryDx=0;entryDy=0;" parent="1" source="OwFgX3Wgjjnu0RvrjG4I-6" target="OwFgX3Wgjjnu0RvrjG4I-5" edge="1">
          <mxGeometry width="160" relative="1" as="geometry">
            <mxPoint x="530" y="330" as="sourcePoint" />
            <mxPoint x="530" y="210" as="targetPoint" />
          </mxGeometry>
        </mxCell>
        <mxCell id="OwFgX3Wgjjnu0RvrjG4I-26" value="" style="endArrow=block;endSize=16;endFill=0;html=1;rounded=0;fontSize=12;edgeStyle=orthogonalEdgeStyle;entryX=0.205;entryY=1.025;entryDx=0;entryDy=0;exitX=1;exitY=0.5;exitDx=0;exitDy=0;entryPerimeter=0;" parent="1" source="OwFgX3Wgjjnu0RvrjG4I-1" target="OwFgX3Wgjjnu0RvrjG4I-4" edge="1">
          <mxGeometry width="160" relative="1" as="geometry">
            <mxPoint x="650" y="350" as="sourcePoint" />
            <mxPoint x="780" y="290" as="targetPoint" />
          </mxGeometry>
        </mxCell>
        <mxCell id="OwFgX3Wgjjnu0RvrjG4I-27" value="" style="endArrow=block;endSize=16;endFill=0;html=1;rounded=0;fontSize=12;edgeStyle=orthogonalEdgeStyle;entryX=0.75;entryY=1;entryDx=0;entryDy=0;exitX=0;exitY=0.5;exitDx=0;exitDy=0;" parent="1" source="OwFgX3Wgjjnu0RvrjG4I-5" target="OwFgX3Wgjjnu0RvrjG4I-4" edge="1">
          <mxGeometry width="160" relative="1" as="geometry">
            <mxPoint x="650" y="190" as="sourcePoint" />
            <mxPoint x="771" y="131" as="targetPoint" />
          </mxGeometry>
        </mxCell>
        <mxCell id="6iGJPZLbcLv0928PfNmi-1" value="ResourceItemDefinitionType" style="html=1;whiteSpace=wrap;" parent="1" vertex="1">
          <mxGeometry x="720" y="790" width="200" height="40" as="geometry" />
        </mxCell>
        <mxCell id="6iGJPZLbcLv0928PfNmi-2" value="1" style="endArrow=diamondThin;endFill=0;endSize=24;html=1;rounded=0;fontSize=12;entryX=0.61;entryY=1;entryDx=0;entryDy=0;exitX=0.5;exitY=0;exitDx=0;exitDy=0;entryPerimeter=0;" parent="1" source="6iGJPZLbcLv0928PfNmi-1" target="OwFgX3Wgjjnu0RvrjG4I-7" edge="1">
          <mxGeometry x="-0.9671" y="10" width="160" relative="1" as="geometry">
            <mxPoint x="819.5" y="600" as="sourcePoint" />
            <mxPoint x="819.5" y="480" as="targetPoint" />
            <mxPoint as="offset" />
            <Array as="points">
              <mxPoint x="820" y="720" />
              <mxPoint x="980" y="720" />
              <mxPoint x="980" y="570" />
              <mxPoint x="842" y="570" />
            </Array>
          </mxGeometry>
        </mxCell>
        <mxCell id="6iGJPZLbcLv0928PfNmi-3" value="ResourceAttributeDefinitionType" style="html=1;whiteSpace=wrap;" parent="1" vertex="1">
          <mxGeometry x="520" y="870" width="200" height="40" as="geometry" />
        </mxCell>
        <mxCell id="6iGJPZLbcLv0928PfNmi-4" value="ResourceAssociationDefinitionType" style="html=1;whiteSpace=wrap;" parent="1" vertex="1">
          <mxGeometry x="920" y="870" width="200" height="40" as="geometry" />
        </mxCell>
        <mxCell id="6iGJPZLbcLv0928PfNmi-5" value="" style="endArrow=block;endSize=16;endFill=0;html=1;rounded=0;fontSize=12;edgeStyle=orthogonalEdgeStyle;entryX=0.25;entryY=1;entryDx=0;entryDy=0;exitX=1;exitY=0.5;exitDx=0;exitDy=0;" parent="1" source="6iGJPZLbcLv0928PfNmi-3" target="6iGJPZLbcLv0928PfNmi-1" edge="1">
          <mxGeometry width="160" relative="1" as="geometry">
            <mxPoint x="650" y="550" as="sourcePoint" />
            <mxPoint x="774" y="490" as="targetPoint" />
          </mxGeometry>
        </mxCell>
        <mxCell id="6iGJPZLbcLv0928PfNmi-6" value="" style="endArrow=block;endSize=16;endFill=0;html=1;rounded=0;fontSize=12;edgeStyle=orthogonalEdgeStyle;entryX=0.719;entryY=1.008;entryDx=0;entryDy=0;exitX=0;exitY=0.5;exitDx=0;exitDy=0;entryPerimeter=0;" parent="1" source="6iGJPZLbcLv0928PfNmi-4" target="6iGJPZLbcLv0928PfNmi-1" edge="1">
          <mxGeometry width="160" relative="1" as="geometry">
            <mxPoint x="730" y="900" as="sourcePoint" />
            <mxPoint x="780" y="840" as="targetPoint" />
          </mxGeometry>
        </mxCell>
      </root>
    </mxGraphModel>
  </diagram>
  <diagram id="pXsAWs3y_Mp9P66PGmuk" name="Before (classes)">
    <mxGraphModel dx="2460" dy="1640" grid="1" gridSize="10" guides="1" tooltips="1" connect="1" arrows="1" fold="1" page="0" pageScale="1" pageWidth="1169" pageHeight="827" math="0" shadow="0">
      <root>
        <mxCell id="0" />
        <mxCell id="1" parent="0" />
        <mxCell id="eVtVrzA1sHmCGJL8MtBJ-1" value="&lt;i&gt;ComplexTypeDefinition&lt;/i&gt;" style="rounded=0;whiteSpace=wrap;html=1;" vertex="1" parent="1">
          <mxGeometry x="-400" y="-160" width="240" height="40" as="geometry" />
        </mxCell>
        <mxCell id="eVtVrzA1sHmCGJL8MtBJ-2" value="&lt;i&gt;ResourceObjectDefinition&lt;/i&gt;" style="rounded=0;whiteSpace=wrap;html=1;" vertex="1" parent="1">
          <mxGeometry x="-400" y="-80" width="240" height="40" as="geometry" />
        </mxCell>
        <mxCell id="eVtVrzA1sHmCGJL8MtBJ-3" value="&lt;i&gt;ResourceObjectClassDefinition&lt;/i&gt;" style="rounded=0;whiteSpace=wrap;html=1;" vertex="1" parent="1">
          <mxGeometry x="-400" width="240" height="40" as="geometry" />
        </mxCell>
        <mxCell id="nuePWBRzJ3jELuKzUE8k-1" value="" style="endArrow=block;endSize=16;endFill=0;html=1;rounded=0;fontSize=12;exitX=0.5;exitY=0;exitDx=0;exitDy=0;entryX=0.5;entryY=1;entryDx=0;entryDy=0;" edge="1" parent="1" source="eVtVrzA1sHmCGJL8MtBJ-2" target="eVtVrzA1sHmCGJL8MtBJ-1">
          <mxGeometry width="160" relative="1" as="geometry">
            <mxPoint x="40" y="80" as="sourcePoint" />
            <mxPoint x="40" as="targetPoint" />
          </mxGeometry>
        </mxCell>
        <mxCell id="nuePWBRzJ3jELuKzUE8k-2" value="" style="endArrow=block;endSize=16;endFill=0;html=1;rounded=0;fontSize=12;exitX=0.5;exitY=0;exitDx=0;exitDy=0;entryX=0.5;entryY=1;entryDx=0;entryDy=0;" edge="1" parent="1" source="eVtVrzA1sHmCGJL8MtBJ-3" target="eVtVrzA1sHmCGJL8MtBJ-2">
          <mxGeometry width="160" relative="1" as="geometry">
            <mxPoint x="50" y="90" as="sourcePoint" />
            <mxPoint x="50" y="10" as="targetPoint" />
          </mxGeometry>
        </mxCell>
        <mxCell id="nuePWBRzJ3jELuKzUE8k-3" value="&lt;span&gt;ResourceObjectClassDefinitionImpl&lt;/span&gt;" style="rounded=0;whiteSpace=wrap;html=1;fontStyle=1" vertex="1" parent="1">
          <mxGeometry x="-400" y="80" width="240" height="40" as="geometry" />
        </mxCell>
        <mxCell id="iGpZaatO3q9Jg9qZ4PEa-1" value="" style="endArrow=block;dashed=1;endFill=0;endSize=12;html=1;rounded=0;fontSize=12;entryX=0.5;entryY=1;entryDx=0;entryDy=0;edgeStyle=orthogonalEdgeStyle;" edge="1" parent="1" source="nuePWBRzJ3jELuKzUE8k-3" target="eVtVrzA1sHmCGJL8MtBJ-3">
          <mxGeometry width="160" relative="1" as="geometry">
            <mxPoint x="340" y="80" as="sourcePoint" />
            <mxPoint x="260" as="targetPoint" />
          </mxGeometry>
        </mxCell>
        <mxCell id="_LsCIgym1TjebtUM1TP9-1" value="0..1" style="endArrow=diamondThin;endFill=0;endSize=24;html=1;rounded=0;fontSize=12;entryX=0.75;entryY=1;entryDx=0;entryDy=0;exitX=0.5;exitY=1;exitDx=0;exitDy=0;edgeStyle=orthogonalEdgeStyle;" edge="1" parent="1" source="nuePWBRzJ3jELuKzUE8k-3" target="nuePWBRzJ3jELuKzUE8k-3">
          <mxGeometry x="-0.1429" y="20" width="160" relative="1" as="geometry">
            <mxPoint x="-280" y="160" as="sourcePoint" />
            <mxPoint x="-200" y="160" as="targetPoint" />
            <mxPoint as="offset" />
            <Array as="points">
              <mxPoint x="-280" y="160" />
              <mxPoint x="-220" y="160" />
            </Array>
          </mxGeometry>
        </mxCell>
        <mxCell id="_LsCIgym1TjebtUM1TP9-2" value="&lt;font style=&quot;font-size: 12px;&quot;&gt;raw&lt;/font&gt;" style="text;html=1;align=center;verticalAlign=middle;whiteSpace=wrap;rounded=0;fontSize=16;" vertex="1" parent="1">
          <mxGeometry x="-230" y="130" width="60" height="30" as="geometry" />
        </mxCell>
        <mxCell id="_LsCIgym1TjebtUM1TP9-3" value="&lt;b&gt;ResourceObjectTypeDefinitionType&lt;/b&gt;" style="rounded=0;whiteSpace=wrap;html=1;" vertex="1" parent="1">
          <mxGeometry x="-40" y="80" width="250" height="40" as="geometry" />
        </mxCell>
        <mxCell id="_LsCIgym1TjebtUM1TP9-5" value="0..1" style="endArrow=diamondThin;endFill=0;endSize=24;html=1;rounded=0;fontSize=12;entryX=1;entryY=0.5;entryDx=0;entryDy=0;exitX=0;exitY=0.5;exitDx=0;exitDy=0;" edge="1" parent="1" source="_LsCIgym1TjebtUM1TP9-3" target="nuePWBRzJ3jELuKzUE8k-3">
          <mxGeometry x="-0.6667" y="20" width="160" relative="1" as="geometry">
            <mxPoint x="90" y="100" as="sourcePoint" />
            <mxPoint x="30" y="260" as="targetPoint" />
            <mxPoint as="offset" />
          </mxGeometry>
        </mxCell>
      </root>
    </mxGraphModel>
  </diagram>
</mxfile>
